<svg width="29" height="29" viewBox="0 0 29 29" fill="none" xmlns="http://www.w3.org/2000/svg">
<g id="free-icon-font-envelope-3916651 1" clip-path="url(#clip0_10_565)">
<g id="01 align center">
<g id="Vector">
<path d="M25.375 1.20825H3.625C2.66359 1.20825 1.74156 1.59017 1.06174 2.26999C0.381918 2.94981 -4.76837e-07 3.87184 -4.76837e-07 4.83325L-4.76837e-07 27.7916H29V4.83325C29 3.87184 28.6181 2.94981 27.9383 2.26999C27.2584 1.59017 26.3364 1.20825 25.375 1.20825ZM3.625 3.62492H25.375C25.6955 3.62492 26.0028 3.75222 26.2294 3.97883C26.456 4.20544 26.5833 4.51278 26.5833 4.83325V5.63921L17.0641 15.1597C16.3831 15.8379 15.4611 16.2187 14.5 16.2187C13.5389 16.2187 12.6169 15.8379 11.9359 15.1597L2.41667 5.63921V4.83325C2.41667 4.51278 2.54397 4.20544 2.77058 3.97883C2.99719 3.75222 3.30453 3.62492 3.625 3.62492ZM2.41667 25.3749V9.06242L10.2273 16.8683C11.3615 17.9996 12.8981 18.6349 14.5 18.6349C16.1019 18.6349 17.6385 17.9996 18.7727 16.8683L26.5833 9.06242V25.3749H2.41667Z" fill="#D1D1D1"/>
<path d="M-1 27.7916V28.7916H-4.76837e-07H29H30V27.7916V4.83325C30 3.60663 29.5127 2.43024 28.6454 1.56288C27.778 0.695527 26.6016 0.208252 25.375 0.208252H3.625C2.39837 0.208252 1.22199 0.695527 0.354631 1.56288L1.06174 2.26999L0.354631 1.56288C-0.512725 2.43024 -1 3.60663 -1 4.83325V27.7916ZM19.4796 17.5756L25.5833 11.4756V24.3749H3.41667V11.4756L9.52044 17.5756L9.52112 17.5763C10.8428 18.8946 12.6333 19.6349 14.5 19.6349C16.3667 19.6349 18.1572 18.8946 19.4789 17.5763L19.4796 17.5756ZM3.625 4.62492H25.375C25.4303 4.62492 25.4832 4.64687 25.5223 4.68594C25.5614 4.72501 25.5833 4.778 25.5833 4.83325V5.22503L16.3584 14.4511C16.3582 14.4514 16.3579 14.4516 16.3577 14.4518C15.8642 14.943 15.1963 15.2187 14.5 15.2187C13.8037 15.2187 13.1358 14.943 12.6423 14.4518C12.6421 14.4516 12.6418 14.4514 12.6416 14.4511L3.41667 5.22503V4.83325C3.41667 4.778 3.43862 4.72501 3.47769 4.68594C3.51676 4.64687 3.56975 4.62492 3.625 4.62492Z" stroke="black" stroke-opacity="0.5" stroke-width="2"/>
</g>
</g>
</g>
<defs>
<clipPath id="clip0_10_565">
<rect width="29" height="29" fill="white"/>
</clipPath>
</defs>
</svg>
